{"title":"Zilla Ghaziabad DVDScr XviD.1CDRip [RRG DBB][DADA]","uid":8181062,"size":732097528,"categoryP":"video","categoryS":"movies","magnet":"?xt=urn:btih:57e4e64bfb5bb6b00c91b18b55ab318db6b30a22&amp;dn=Zilla+Ghaziabad+DVDScr+XviD.1CDRip+%5BRRG+DBB%5D%5BDADA%5D&amp;tr=udp%3A%2F%2Ftracker.openbittorrent.com%3A80&amp;tr=udp%3A%2F%2Fopen.demonii.com%3A1337&amp;tr=udp%3A%2F%2Ftracker.coppersurfer.tk%3A6969&amp;tr=udp%3A%2F%2Fexodus.desync.com%3A6969","seeders":1,"leechers":0,"uploader":"brego45","files":1,"time":1361626990,"description":"Cover \n\n\n\n\n\nScreens\n\n\n &lt;a href=&quot;\nhttp://www.imdb.com/title/tt2171454/&quot; rel=&quot;nofollow&quot; target=&quot;_NEW&quot;&gt;\nhttp://www.imdb.com/title/tt2171454/&lt;/a&gt;\n\n\n\nFormat                           : AVI\nFormat/Info                      : Audio Video Interleave\nFile size                        : 698 MiB\nDuration                         : 2h 25mn\nOverall bit rate                 : 671 Kbps\n\nVideo\nID                               : 0\nFormat                           : MPEG-4 Visual\nFormat profile                   : Advanced Simple@L5\nFormat settings, BVOP            : Yes\nFormat settings, QPel            : No\nFormat settings, GMC             : No warppoints\nFormat settings, Matrix          : Default (H.263)\nCodec ID                         : XVID\nCodec ID/Hint                    : XviD\nDuration                         : 2h 25mn\nBit rate                         : 472 Kbps\nWidth                            : 640 pixels\nHeight                           : 256 pixels\nDisplay aspect ratio             : 2.500\nFrame rate                       : 23.976 fps\nColor space                      : YUV\nChroma subsampling               : 4:2:0\nBit depth                        : 8 bits\nScan type                        : Progressive\nBits/(Pixel*Frame)               : 0.120\nStream size                      : 491 MiB (70%)\nWriting library                  : XviD 1.2.1 (UTC 2008-12-04)\n\nAudio\nID                               : 1\nFormat                           : AC-3\nFormat/Info                      : Audio Coding 3\nMode extension                   : CM (complete main)\nCodec ID                         : 2000\nDuration                         : 2h 25mn\nBit rate mode                    : Constant\nBit rate                         : 192 Kbps\nChannel(s)                       : 2 channels\nChannel positions                : Front: L R\nSampling rate                    : 48.0 KHz\nBit depth                        : 16 bits\nStream size                      : 200 MiB (29%)\nAlignment                        : Aligned on interleaves\nInterleave, duration             : 64 ms (1.53 video frames)\nInterleave, preload duration     : 192 ms\n","torrent":{"xt":"urn:btih:57e4e64bfb5bb6b00c91b18b55ab318db6b30a22","amp;dn":"Zilla+Ghaziabad+DVDScr+XviD.1CDRip+%5BRRG+DBB%5D%5BDADA%5D","amp;tr":["udp%3A%2F%2Ftracker.openbittorrent.com%3A80","udp%3A%2F%2Fopen.demonii.com%3A1337","udp%3A%2F%2Ftracker.coppersurfer.tk%3A6969","udp%3A%2F%2Fexodus.desync.com%3A6969"],"infoHash":"57e4e64bfb5bb6b00c91b18b55ab318db6b30a22","infoHashBuffer":{"type":"Buffer","data":[87,228,230,75,251,91,182,176,12,145,177,139,85,171,49,141,182,179,10,34]},"announce":[],"urlList":[]}}